<?xml version="1.0" encoding="UTF-8"?>
<!DOCTYPE svg PUBLIC "-//W3C//DTD SVG 1.1//EN" "http://www.w3.org/Graphics/SVG/1.1/DTD/svg11.dtd">
<svg xmlns="http://www.w3.org/2000/svg" version="1.1" width="48px" height="48px" viewBox="0 0 110 110" xmlns:xlink="http://www.w3.org/1999/xlink">
<style>@media (prefers-color-scheme: light) { .h { fill: hsl(214.5882, 44.70588%, 50%) } .k { fill: hsl(344, 80%, 50%) } } @media (prefers-color-scheme: dark) { .h { fill: hsl(214.5882, 44.70588%, 75%) } .k { fill: hsl(344, 80%, 75%) } }</style>
<g><path class="h" style="opacity:0.917" fill="hsl(214.5882, 44.70588%, 75%)" d="M 109.5,72.5 C 109.5,74.5 109.5,76.5 109.5,78.5C 108.354,80.475 106.687,81.975 104.5,83C 99.5111,83.4993 94.5111,83.6659 89.5,83.5C 89.6662,89.5092 89.4995,95.5092 89,101.5C 88.6258,102.416 88.1258,103.25 87.5,104C 78.8333,104.667 70.1667,104.667 61.5,104C 59.6041,102.192 59.1041,100.025 60,97.5C 66.7445,96.5212 73.5778,96.1878 80.5,96.5C 80.3337,89.825 80.5004,83.1583 81,76.5C 81.5,76 82,75.5 82.5,75C 87.8333,74.6667 93.1667,74.3333 98.5,74C 82.5455,57.7187 67.7122,40.552 54,22.5C 40.8066,40.6867 26.3066,57.8533 10.5,74C 15.7503,74.1929 20.917,74.6929 26,75.5C 27.4204,82.0496 27.9204,88.7163 27.5,95.5C 33.5092,95.3338 39.5092,95.5005 45.5,96C 49.0655,98.1775 49.3988,100.844 46.5,104C 37.8333,104.667 29.1667,104.667 20.5,104C 20,103.5 19.5,103 19,102.5C 18.5005,96.1754 18.3338,89.8421 18.5,83.5C 13.8215,83.6658 9.1548,83.4992 4.5,83C 2.67694,82.0027 1.01027,80.8361 -0.5,79.5C -0.5,76.8333 -0.5,74.1667 -0.5,71.5C 16.6858,54.6176 32.3525,36.4509 46.5,17C 44.6667,15.1667 42.8333,13.3333 41,11.5C 39.1667,5.33333 41.3333,3.16667 47.5,5C 49.6667,7.16667 51.8333,9.33333 54,11.5C 56.5229,8.12315 59.6896,5.78981 63.5,4.5C 66.3625,4.36424 68.0291,5.69758 68.5,8.5C 67.32,12.0194 65.32,15.0194 62.5,17.5C 77.0949,36.7606 92.7615,55.0939 109.5,72.5 Z"/></g>
<g><path class="k" style="opacity:0.879" fill="hsl(344, 80%, 75%)" d="M 40.5,51.5 C 42.7224,51.178 44.5557,51.8446 46,53.5C 46.3333,59.8333 46.6667,66.1667 47,72.5C 52.5,65.6667 58,58.8333 63.5,52C 68.6667,50.5 70.5,52.3333 69,57.5C 65.3792,61.9095 61.8792,66.4095 58.5,71C 62,74.5 65.5,78 69,81.5C 70.2224,86.9254 68.3891,88.7588 63.5,87C 60.318,83.6507 56.9846,80.484 53.5,77.5C 50.3816,80.9069 47.3816,84.4069 44.5,88C 42.2992,88.8249 40.4659,88.3249 39,86.5C 38.3333,75.5 38.3333,64.5 39,53.5C 39.7172,52.9558 40.2172,52.2891 40.5,51.5 Z"/></g>
</svg>
