<?xml version="1.0" standalone="no"?>
<svg xmlns="http://www.w3.org/2000/svg" version="1.0" width="512px" height="512px" viewBox="0 0 1073 1073">
<style>
@media (prefers-color-scheme: light) {
.h { fill: hsl(214.5882, 44.70588%, 50%) }
.k { fill: hsl(344, 80%, 50%) }
.b { fill: hsl(0, 0%, 20%) }
}
@media (prefers-color-scheme: dark) {
.h { fill: hsl(214.5882, 0%, 10%) }
.k { fill: hsl(350, 0%, 10%) }
.b { fill: hsl(0, 0%, 0%) }
}
</style>
<g class="b" transform="translate(0.000000,1073.000000) scale(0.100000,-0.100000)">
<path d="M580 9135 l0 -1015 1015 0 1015 0 0 1015 0 1015 -1015 0 -1015 0 0 -1015z m1740 0 l0 -725 -725 0 -725 0 0 725 0 725 725 0 725 0 0 -725z"/>
<path d="M1160 9135 l0 -435 435 0 435 0 0 435 0 435 -435 0 -435 0 0 -435z"/>
<path d="M2900 9715 l0 -435 435 0 435 0 0 145 0 145 -290 0 -290 0 0 145 0 145 290 0 290 0 0 145 0 145 -435 0 -435 0 0 -435z"/>
<path d="M4060 10005 l0 -145 145 0 145 0 0 -145 0 -145 145 0 145 0 0 -145 0 -145 -145 0 -145 0 0 -145 0 -145 -145 0 -145 0 0 -145 0 -145 -145 0 -145 0 0 145 0 145 -145 0 -145 0 0 -435 0 -435 -145 0 -145 0 0 290 0 290 -145 0 -145 0 0 -580 0 -580 145 0 145 0 0 -145 0 -145 -435 0 -435 0 0 145 0 145 145 0 145 0 0 145 0 145 -145 0 -145 0 0 -145 0 -145 -145 0 -145 0 0 145 0 145 -435 0 -435 0 0 -145 0 -145 -145 0 -145 0 0 -145 0 -145 -145 0 -145 0 0 -145 0 -145 290 0 290 0 0 290 0 290 145 0 145 0 0 -145 0 -145 435 0 435 0 0 -145 0 -145 290 0 290 0 0 -290 0 -290 -145 0 -145 0 0 145 0 145 -290 0 -290 0 0 -290 0 -290 -145 0 -145 0 0 -290 0 -290 290 0 290 0 0 -145 0 -145 -290 0 -290 0 0 -290 0 -290 145 0 145 0 0 -145 0 -145 145 0 145 0 0 -145 0 -145 290 0 290 0 0 -145 0 -145 145 0 145 0 0 145 0 145 -145 0 -145 0 0 145 0 145 290 0 290 0 0 145 0 145 -290 0 -290 0 0 145 0 145 -290 0 -290 0 0 145 0 145 145 0 145 0 0 145 0 145 145 0 145 0 0 145 0 145 -145 0 -145 0 0 145 0 145 145 0 145 0 0 145 0 145 435 0 435 0 0 290 0 290 145 0 145 0 0 145 0 145 -145 0 -145 0 0 290 0 290 -145 0 -145 0 0 145 0 145 145 0 145 0 0 145 0 145 145 0 145 0 0 -145 0 -145 145 0 145 0 0 145 0 145 -145 0 -145 0 0 145 0 145 145 0 145 0 0 145 0 145 145 0 145 0 0 -145 0 -145 435 0 435 0 0 -145 0 -145 -145 0 -145 0 0 -145 0 -145 145 0 145 0 0 -145 0 -145 -145 0 -145 0 0 -145 0 -145 290 0 290 0 0 -145 0 -145 -290 0 -290 0 0 -145 0 -145 290 0 290 0 0 145 0 145 145 0 145 0 0 -145 0 -145 290 0 290 0 0 145 0 145 -290 0 -290 0 0 290 0 290 145 0 145 0 0 -145 0 -145 145 0 145 0 0 145 0 145 145 0 145 0 0 -145 0 -145 145 0 145 0 0 -145 0 -145 -145 0 -145 0 0 -145 0 -145 145 0 145 0 0 -145 0 -145 -145 0 -145 0 0 -145 0 -145 145 0 145 0 0 -145 0 -145 -145 0 -145 0 0 -290 0 -290 435 0 435 0 0 -145 0 -145 -290 0 -290 0 0 -145 0 -145 -145 0 -145 0 0 -145 0 -145 145 0 145 0 0 -145 0 -145 -145 0 -145 0 0 -435 0 -435 -145 0 -145 0 0 145 0 145 -290 0 -290 0 0 -145 0 -145 290 0 290 0 0 -145 0 -145 -290 0 -290 0 0 -145 0 -145 290 0 290 0 0 -145 0 -145 -145 0 -145 0 0 -145 0 -145 -145 0 -145 0 0 145 0 145 -145 0 -145 0 0 145 0 145 -145 0 -145 0 0 145 0 145 -145 0 -145 0 0 145 0 145 290 0 290 0 0 145 0 145 -435 0 -435 0 0 -145 0 -145 -145 0 -145 0 0 145 0 145 -290 0 -290 0 0 -145 0 -145 -145 0 -145 0 0 290 0 290 -145 0 -145 0 0 -290 0 -290 -435 0 -435 0 0 145 0 145 -290 0 -290 0 0 145 0 145 -145 0 -145 0 0 145 0 145 -145 0 -145 0 0 290 0 290 -290 0 -290 0 0 -145 0 -145 -145 0 -145 0 0 -870 0 -870 145 0 145 0 0 725 0 725 145 0 145 0 0 -580 0 -580 290 0 290 0 0 145 0 145 435 0 435 0 0 -145 0 -145 -290 0 -290 0 0 -145 0 -145 435 0 435 0 0 -145 0 -145 145 0 145 0 0 145 0 145 290 0 290 0 0 145 0 145 145 0 145 0 0 145 0 145 145 0 145 0 0 -145 0 -145 145 0 145 0 0 -290 0 -290 -145 0 -145 0 0 -145 0 -145 -145 0 -145 0 0 145 0 145 -290 0 -290 0 0 -145 0 -145 290 0 290 0 0 -145 0 -145 -290 0 -290 0 0 -145 0 -145 -145 0 -145 0 0 145 0 145 -145 0 -145 0 0 -435 0 -435 145 0 145 0 0 145 0 145 145 0 145 0 0 -290 0 -290 145 0 145 0 0 -145 0 -145 435 0 435 0 0 145 0 145 -290 0 -290 0 0 145 0 145 -145 0 -145 0 0 145 0 145 290 0 290 0 0 -145 0 -145 580 0 580 0 0 -145 0 -145 -145 0 -145 0 0 -145 0 -145 290 0 290 0 0 435 0 435 145 0 145 0 0 145 0 145 145 0 145 0 0 -290 0 -290 145 0 145 0 0 -290 0 -290 145 0 145 0 0 435 0 435 145 0 145 0 0 145 0 145 -145 0 -145 0 0 145 0 145 290 0 290 0 0 -145 0 -145 145 0 145 0 0 -145 0 -145 -145 0 -145 0 0 -145 0 -145 -145 0 -145 0 0 -290 0 -290 435 0 435 0 0 290 0 290 145 0 145 0 0 -145 0 -145 145 0 145 0 0 145 0 145 -145 0 -145 0 0 145 0 145 -145 0 -145 0 0 145 0 145 290 0 290 0 0 -145 0 -145 145 0 145 0 0 -290 0 -290 290 0 290 0 0 -145 0 -145 145 0 145 0 0 145 0 145 -145 0 -145 0 0 290 0 290 145 0 145 0 0 145 0 145 145 0 145 0 0 290 0 290 -145 0 -145 0 0 145 0 145 145 0 145 0 0 145 0 145 -290 0 -290 0 0 -145 0 -145 -145 0 -145 0 0 145 0 145 -145 0 -145 0 0 145 0 145 580 0 580 0 0 145 0 145 -145 0 -145 0 0 145 0 145 145 0 145 0 0 435 0 435 -145 0 -145 0 0 145 0 145 145 0 145 0 0 435 0 435 -145 0 -145 0 0 145 0 145 145 0 145 0 0 145 0 145 -145 0 -145 0 0 145 0 145 -145 0 -145 0 0 145 0 145 145 0 145 0 0 145 0 145 145 0 145 0 0 290 0 290 -435 0 -435 0 0 -145 0 -145 -145 0 -145 0 0 -435 0 -435 -290 0 -290 0 0 -145 0 -145 -145 0 -145 0 0 290 0 290 290 0 290 0 0 145 0 145 -145 0 -145 0 0 145 0 145 145 0 145 0 0 145 0 145 -435 0 -435 0 0 290 0 290 -145 0 -145 0 0 -290 0 -290 145 0 145 0 0 -290 0 -290 145 0 145 0 0 -145 0 -145 -145 0 -145 0 0 -145 0 -145 -145 0 -145 0 0 145 0 145 -145 0 -145 0 0 145 0 145 145 0 145 0 0 145 0 145 -145 0 -145 0 0 435 0 435 -145 0 -145 0 0 145 0 145 -145 0 -145 0 0 145 0 145 -290 0 -290 0 0 -145 0 -145 -290 0 -290 0 0 145 0 145 -145 0 -145 0 0 435 0 435 435 0 435 0 0 145 0 145 -725 0 -725 0 0 -145 0 -145 -145 0 -145 0 0 145 0 145 -145 0 -145 0 0 -145z m870 -870 l0 -145 -145 0 -145 0 0 145 0 145 145 0 145 0 0 -145z m870 -870 l0 -145 145 0 145 0 0 145 0 145 145 0 145 0 0 -145 0 -145 -145 0 -145 0 0 -145 0 -145 -145 0 -145 0 0 145 0 145 -145 0 -145 0 0 145 0 145 145 0 145 0 0 -145z m1160 0 l0 -145 -145 0 -145 0 0 145 0 145 145 0 145 0 0 -145z m2900 -870 l0 -145 -145 0 -145 0 0 -145 0 -145 -145 0 -145 0 0 290 0 290 290 0 290 0 0 -145z m-6090 -290 l0 -145 -290 0 -290 0 0 145 0 145 290 0 290 0 0 -145z m3770 -580 l0 -145 145 0 145 0 0 -145 0 -145 290 0 290 0 0 145 0 145 290 0 290 0 0 145 0 145 290 0 290 0 0 -145 0 -145 145 0 145 0 0 -145 0 -145 -145 0 -145 0 0 145 0 145 -290 0 -290 0 0 -145 0 -145 145 0 145 0 0 -145 0 -145 -145 0 -145 0 0 -145 0 -145 290 0 290 0 0 145 0 145 145 0 145 0 0 -145 0 -145 -145 0 -145 0 0 -145 0 -145 145 0 145 0 0 -145 0 -145 -290 0 -290 0 0 -145 0 -145 -145 0 -145 0 0 145 0 145 -145 0 -145 0 0 -435 0 -435 290 0 290 0 0 145 0 145 145 0 145 0 0 -145 0 -145 145 0 145 0 0 -145 0 -145 -725 0 -725 0 0 -145 0 -145 145 0 145 0 0 -145 0 -145 -580 0 -580 0 0 145 0 145 145 0 145 0 0 145 0 145 -290 0 -290 0 0 290 0 290 145 0 145 0 0 -145 0 -145 145 0 145 0 0 145 0 145 290 0 290 0 0 435 0 435 -145 0 -145 0 0 145 0 145 -145 0 -145 0 0 290 0 290 -145 0 -145 0 0 -145 0 -145 -145 0 -145 0 0 145 0 145 145 0 145 0 0 145 0 145 -145 0 -145 0 0 145 0 145 145 0 145 0 0 -145z m-4930 -290 l0 -145 -145 0 -145 0 0 -145 0 -145 145 0 145 0 0 -145 0 -145 -145 0 -145 0 0 145 0 145 -145 0 -145 0 0 145 0 145 145 0 145 0 0 145 0 145 145 0 145 0 0 -145z m-290 -1450 l0 -145 145 0 145 0 0 -145 0 -145 -145 0 -145 0 0 145 0 145 -145 0 -145 0 0 145 0 145 145 0 145 0 0 -145z m5510 0 l0 -145 -290 0 -290 0 0 145 0 145 290 0 290 0 0 -145z m-6090 -1015 l0 -290 -145 0 -145 0 0 290 0 290 145 0 145 0 0 -290z m2030 -435 l0 -145 -145 0 -145 0 0 145 0 145 145 0 145 0 0 -145z m3190 -290 l0 -145 290 0 290 0 0 -145 0 -145 -145 0 -145 0 0 -145 0 -145 -145 0 -145 0 0 290 0 290 -145 0 -145 0 0 145 0 145 145 0 145 0 0 -145z m-1740 -290 l0 -145 290 0 290 0 0 -145 0 -145 145 0 145 0 0 -145 0 -145 -145 0 -145 0 0 -145 0 -145 -145 0 -145 0 0 -145 0 -145 -435 0 -435 0 0 145 0 145 -290 0 -290 0 0 145 0 145 145 0 145 0 0 145 0 145 145 0 145 0 0 -290 0 -290 145 0 145 0 0 145 0 145 290 0 290 0 0 145 0 145 -145 0 -145 0 0 145 0 145 -145 0 -145 0 0 145 0 145 145 0 145 0 0 -145z m3480 -290 l0 -435 -435 0 -435 0 0 435 0 435 435 0 435 0 0 -435z m-2030 -290 l0 -145 -145 0 -145 0 0 145 0 145 145 0 145 0 0 -145z m2610 0 l0 -145 145 0 145 0 0 -145 0 -145 -290 0 -290 0 0 290 0 290 145 0 145 0 0 -145z m-5510 -580 l0 -145 -145 0 -145 0 0 145 0 145 145 0 145 0 0 -145z m3190 0 l0 -145 -145 0 -145 0 0 145 0 145 145 0 145 0 0 -145z m870 -580 l0 -145 -145 0 -145 0 0 145 0 145 145 0 145 0 0 -145z"/>
<path d="M8700 5945 l0 -145 145 0 145 0 0 145 0 145 -145 0 -145 0 0 -145z"/>
<path d="M8120 5655 l0 -145 145 0 145 0 0 -145 0 -145 290 0 290 0 0 145 0 145 -290 0 -290 0 0 145 0 145 -145 0 -145 0 0 -145z"/>
<path d="M8120 2465 l0 -145 145 0 145 0 0 145 0 145 -145 0 -145 0 0 -145z"/>
<path d="M7250 10005 l0 -145 -290 0 -290 0 0 -145 0 -145 -145 0 -145 0 0 -145 0 -145 290 0 290 0 0 145 0 145 145 0 145 0 0 -290 0 -290 145 0 145 0 0 -145 0 -145 145 0 145 0 0 145 0 145 -145 0 -145 0 0 145 0 145 145 0 145 0 0 435 0 435 -290 0 -290 0 0 -145z m290 -290 l0 -145 -145 0 -145 0 0 145 0 145 145 0 145 0 0 -145z"/>
<path d="M8120 9135 l0 -1015 1015 0 1015 0 0 1015 0 1015 -1015 0 -1015 0 0 -1015z m1740 0 l0 -725 -725 0 -725 0 0 725 0 725 725 0 725 0 0 -725z"/>
<path d="M8700 9135 l0 -435 435 0 435 0 0 435 0 435 -435 0 -435 0 0 -435z"/>
<path d="M5510 9425 l0 -145 145 0 145 0 0 145 0 145 -145 0 -145 0 0 -145z"/>
<path d="M4640 8265 l0 -145 145 0 145 0 0 145 0 145 -145 0 -145 0 0 -145z"/>
<path d="M4640 7685 l0 -145 -145 0 -145 0 0 -290 0 -290 290 0 290 0 0 435 0 435 -145 0 -145 0 0 -145z"/>
<path d="M1450 6815 l0 -145 -435 0 -435 0 0 -145 0 -145 145 0 145 0 0 -145 0 -145 -145 0 -145 0 0 -435 0 -435 435 0 435 0 0 145 0 145 -290 0 -290 0 0 290 0 290 290 0 290 0 0 145 0 145 145 0 145 0 0 290 0 290 -145 0 -145 0 0 -145z"/>
<path d="M3190 5945 l0 -145 145 0 145 0 0 -290 0 -290 -145 0 -145 0 0 -145 0 -145 290 0 290 0 0 435 0 435 -145 0 -145 0 0 145 0 145 -145 0 -145 0 0 -145z"/>
<path d="M580 1595 l0 -1015 1015 0 1015 0 0 1015 0 1015 -1015 0 -1015 0 0 -1015z m1740 0 l0 -725 -725 0 -725 0 0 725 0 725 725 0 725 0 0 -725z"/>
<path d="M1160 1595 l0 -435 435 0 435 0 0 435 0 435 -435 0 -435 0 0 -435z"/>
<path d="M6090 725 l0 -145 145 0 145 0 0 145 0 145 -145 0 -145 0 0 -145z"/>
</g>
<g class="h" transform="translate(0.000000,1073.000000) scale(0.100000,-0.100000)">
<path d="M4988 6814 c-33 -18 -42 -47 -36 -120 5 -54 7 -58 86 -137 45 -45 82 -86 82 -90 0 -11 -209 -289 -339 -452 -278 -346 -542 -644 -844 -951 l-168 -171 3 -124 3 -123 50 -38 c28 -21 66 -43 85 -48 19 -5 116 -13 216 -16 l181 -7 6 -266 c7 -301 9 -309 83 -323 52 -11 583 -13 662 -4 53 7 65 12 83 37 12 17 23 47 26 69 5 34 1 43 -33 79 l-39 41 -150 10 c-82 5 -203 10 -268 10 l-117 0 6 68 c7 79 -10 319 -31 428 -8 42 -16 78 -17 80 -3 3 -238 30 -366 41 l-83 8 142 150 c367 389 678 757 1003 1188 65 86 122 157 125 156 3 0 59 -69 123 -152 293 -381 648 -793 1022 -1186 81 -85 145 -156 143 -158 -2 -2 -107 -10 -233 -18 -217 -15 -230 -17 -253 -39 -23 -24 -23 -26 -29 -308 l-5 -285 -211 -6 c-116 -3 -250 -11 -298 -18 l-87 -11 -6 -40 c-5 -30 -2 -49 17 -86 20 -41 28 -48 63 -54 54 -11 584 -13 663 -4 61 8 63 9 84 49 19 38 21 63 26 293 l5 251 196 7 c108 3 214 11 236 17 26 7 58 30 93 64 l52 52 0 89 -1 89 -141 150 c-384 409 -832 936 -1142 1342 l-77 102 57 67 c69 81 119 183 110 220 -4 15 -20 40 -37 56 -27 28 -34 30 -84 26 -69 -6 -149 -53 -230 -135 l-60 -62 -96 95 c-74 74 -105 97 -135 104 -55 13 -85 12 -116 -6z"/>
</g>
<g class="k" transform="translate(0.000000,1073.000000) scale(0.100000,-0.100000)">
<path d="M4933 5440 c-29 -32 -30 -35 -36 -174 -8 -168 -7 -557 2 -711 l6 -109 34 -23 c33 -23 74 -29 105 -17 9 3 58 56 110 118 178 209 160 192 187 174 13 -9 83 -72 156 -141 119 -114 135 -126 177 -132 81 -12 116 33 102 129 -6 38 -22 57 -156 191 -83 82 -150 153 -150 158 0 10 94 134 203 270 96 120 107 139 107 200 0 66 -23 87 -95 87 -45 0 -60 -5 -78 -22 -12 -13 -123 -148 -246 -301 -123 -153 -225 -276 -227 -274 -2 2 -10 124 -19 272 -17 313 -15 306 -121 329 -27 6 -36 3 -61 -24z"/>
</g>
</svg>

