<?xml version="1.0" standalone="no"?>
<svg version="1.0" xmlns="http://www.w3.org/2000/svg" width="512px" height="512px" viewBox="0 0 512 512">
<g transform="translate(0.000000,512.000000) scale(0.100000,-0.100000)" fill="#000000">
<path d="M280 4355 l0 -485 483 2 482 3 3 483 2 482 -485 0 -485 0 0 -485z m820 5 l0 -340 -340 0 -340 0 0 340 0 340 340 0 340 0 0 -340z"/>
<path d="M557 4563 c-4 -3 -7 -98 -7 -210 l0 -203 210 0 210 0 0 210 0 210 -203 0 c-112 0 -207 -3 -210 -7z"/>
<path d="M1520 4770 l0 -70 -70 0 -70 0 2 -412 3 -413 68 -3 67 -3 0 71 0 70 70 0 70 0 0 -135 0 -135 -345 0 -345 0 0 -70 0 -70 140 0 140 0 0 -70 0 -70 -70 0 -70 0 0 -70 0 -70 70 0 70 0 0 -70 0 -70 -70 0 -70 0 0 -70 0 -71 68 3 67 3 3 68 3 67 204 0 205 0 0 -70 0 -70 -70 0 -70 0 0 -135 0 -135 -70 0 -70 0 0 135 0 135 -65 0 -65 0 0 -65 0 -65 -70 0 -70 0 0 -70 0 -70 70 0 70 0 0 -70 0 -70 -70 0 -70 0 0 -70 0 -71 68 3 67 3 3 68 3 67 64 0 65 0 0 -70 0 -70 70 0 70 0 0 -70 0 -70 -70 0 -71 0 3 -67 3 -68 68 -3 67 -3 0 71 0 70 70 0 70 0 0 70 0 70 70 0 70 0 0 140 0 140 -70 0 -70 0 0 135 0 135 70 0 70 0 0 140 0 140 70 0 70 0 0 70 0 70 135 0 135 0 0 -70 0 -70 140 0 140 0 0 70 0 70 -70 0 -70 0 0 70 0 70 -70 0 -70 0 0 135 0 135 -65 0 -65 0 0 70 0 70 65 0 64 0 3 -67 3 -68 68 -3 67 -3 0 -64 0 -65 70 0 70 0 0 -70 0 -70 70 0 70 0 0 -140 0 -140 140 0 140 0 0 70 0 70 -70 0 -70 0 0 70 0 70 -70 0 -70 0 0 70 0 70 -70 0 -70 0 0 65 0 64 68 3 67 3 3 68 3 67 69 0 70 0 0 -135 0 -135 70 0 70 0 0 -70 0 -70 65 0 65 0 0 70 0 70 -65 0 -65 0 0 135 0 135 65 0 64 0 3 -67 3 -68 68 -3 67 -3 0 71 0 70 -70 0 -70 0 0 70 0 70 140 0 140 0 0 -205 0 -205 210 0 210 0 0 -70 0 -70 -140 0 -140 0 0 -70 0 -70 -140 0 -140 0 0 -70 0 -70 70 0 70 0 0 -205 0 -205 70 0 70 0 0 -70 0 -70 -70 0 -70 0 0 -70 0 -70 70 0 70 0 0 -210 0 -210 -70 0 -70 0 0 -65 0 -65 140 0 140 0 0 -70 0 -70 70 0 71 0 -3 68 -3 67 -67 3 -68 3 0 64 0 64 68 3 67 3 3 68 3 67 -71 0 -70 0 0 70 0 70 70 0 70 0 0 140 0 140 65 0 65 0 2 -207 3 -208 138 -3 137 -3 0 -69 0 -70 -205 0 -205 0 0 -65 0 -65 64 0 64 0 4 -72 c2 -40 2 -103 0 -140 l-3 -68 -64 0 -65 0 0 -70 0 -70 -70 0 -70 0 0 70 0 70 -280 0 -280 0 0 -210 0 -210 -65 0 -65 0 0 -65 0 -65 65 0 65 0 0 -70 0 -70 70 0 70 0 0 -70 0 -70 -135 0 -135 0 0 -140 0 -140 205 0 205 0 0 210 0 210 -70 0 -71 0 3 67 3 68 138 3 137 3 0 64 0 65 -140 0 -140 0 0 140 0 140 70 0 70 0 0 -70 0 -70 70 0 70 0 0 70 0 70 70 0 70 0 0 -275 0 -275 -70 0 -70 0 0 -210 0 -210 140 0 140 0 0 70 0 70 135 0 135 0 0 -70 0 -70 70 0 70 0 0 -70 0 -70 70 0 70 0 0 -65 0 -64 -67 -3 -68 -3 -3 -67 -3 -68 141 0 140 0 0 205 0 205 70 0 70 0 0 -70 0 -70 135 0 135 0 0 70 0 69 -67 3 -68 3 -3 67 -3 68 71 0 70 0 0 275 0 275 -205 0 -205 0 0 -65 0 -65 -70 0 -70 0 0 135 0 135 70 0 70 0 0 70 0 70 -70 0 -70 0 0 70 0 70 70 0 70 0 0 70 0 70 -70 0 -70 0 0 -70 0 -70 -70 0 -70 0 0 205 0 205 70 0 70 0 0 -65 0 -65 70 0 70 0 0 65 0 64 68 3 67 3 3 68 3 67 64 0 64 0 3 -67 3 -68 68 -3 67 -3 0 141 0 140 -205 0 -205 0 0 70 0 70 -70 0 -70 0 0 -70 0 -70 70 0 70 0 0 -70 0 -70 -140 0 -140 0 0 70 0 70 -70 0 -70 0 0 210 0 210 70 0 70 0 0 205 0 205 70 0 70 0 0 -140 0 -141 68 3 67 3 3 208 2 207 70 0 70 0 0 70 0 70 65 0 65 0 0 70 0 70 -342 -2 -343 -3 -3 -67 -3 -68 -69 0 -70 0 0 70 0 70 -65 0 -65 0 0 135 0 135 -70 0 -70 0 0 210 0 210 -140 0 -140 0 0 70 0 70 70 0 70 0 0 135 0 135 -140 0 -141 0 3 -67 3 -68 68 -3 67 -3 0 -64 0 -65 -70 0 -70 0 0 65 0 64 -67 3 -68 3 -3 68 -3 67 -134 0 -135 0 0 -70 0 -70 70 0 70 0 0 -135 0 -135 65 0 64 0 3 68 3 67 68 3 67 3 0 -141 0 -140 -135 0 -135 0 0 -70 0 -70 -140 0 -140 0 0 -70 0 -70 -70 0 -70 0 0 140 0 140 70 0 70 0 0 275 0 275 -555 0 -555 0 0 -70z m560 -135 l0 -65 -70 0 -70 0 0 -70 0 -70 70 0 70 0 0 -70 0 -70 65 0 65 0 0 -70 0 -70 -65 0 -65 0 0 -70 0 -70 -70 0 -69 0 -3 -67 -3 -68 -67 -3 -68 -3 0 71 0 70 70 0 70 0 0 70 0 70 -210 0 -210 0 0 70 0 70 140 0 140 0 0 70 0 70 -70 0 -70 0 0 70 0 70 140 0 140 0 0 65 0 65 70 0 70 0 0 -65z m270 -70 l0 -135 -70 0 -70 0 0 135 0 135 70 0 70 0 0 -135z m140 -625 l0 -70 -70 0 -70 0 0 70 0 70 70 0 70 0 0 -70z m1110 0 l0 -70 -70 0 -70 0 0 70 0 70 70 0 70 0 0 -70z m-1522 -272 l3 -68 -141 0 -140 0 0 -70 0 -70 -70 0 -70 0 0 -70 0 -70 -70 0 -70 0 0 70 0 70 70 0 70 0 0 70 0 70 70 0 70 0 0 70 0 71 138 -3 137 -3 3 -67z m2212 -138 l0 -70 -70 0 -70 0 0 70 0 70 70 0 70 0 0 -70z m-550 -210 l0 -140 64 0 64 0 4 -67 c2 -38 2 -98 0 -135 l-3 -68 -64 0 -65 0 0 135 0 135 -70 0 -70 0 0 -70 0 -70 -70 0 -70 0 0 70 0 70 70 0 70 0 0 140 0 140 70 0 70 0 0 -140z m270 70 l0 -70 -70 0 -70 0 0 70 0 70 70 0 70 0 0 -70z m-410 -690 l0 -70 -70 0 -70 0 0 70 0 70 70 0 70 0 0 -70z m-1940 -140 l0 -70 -70 0 -70 0 0 70 0 70 70 0 70 0 0 -70z m2490 -900 l0 -140 -205 0 -205 0 0 70 0 70 135 0 135 0 0 70 0 70 70 0 70 0 0 -140z m0 -485 l0 -205 -205 0 -205 0 0 205 0 205 205 0 205 0 0 -205z m552 3 c2 -40 2 -103 0 -140 l-3 -68 -64 0 -65 0 0 -70 0 -70 -70 0 -70 0 0 140 0 140 70 0 70 0 0 70 0 70 64 0 64 0 4 -72z"/>
<path d="M1940 4220 l0 -70 70 0 70 0 0 70 0 70 -70 0 -70 0 0 -70z"/>
<path d="M3877 1243 c-4 -3 -7 -35 -7 -70 l0 -63 70 0 70 0 0 70 0 70 -63 0 c-35 0 -67 -3 -70 -7z"/>
<path d="M3600 4705 l0 -135 70 0 70 0 0 135 0 135 -70 0 -70 0 0 -135z"/>
<path d="M3872 4358 l3 -483 483 -3 482 -2 0 485 0 485 -485 0 -485 0 2 -482z m828 2 l0 -340 -340 0 -340 0 0 340 0 340 340 0 340 0 0 -340z"/>
<path d="M4150 4360 l0 -210 210 0 210 0 -2 208 -3 207 -207 3 -208 2 0 -210z"/>
<path d="M557 3733 c-4 -3 -7 -35 -7 -70 l0 -63 -135 0 -135 0 0 -280 0 -281 68 3 67 3 3 68 3 67 134 0 135 0 0 280 0 280 -63 0 c-35 0 -67 -3 -70 -7z m-7 -343 l0 -70 -65 0 -65 0 0 70 0 70 65 0 65 0 0 -70z"/>
<path d="M4705 3591 c-3 -5 -5 -67 -4 -138 0 -70 0 -161 0 -200 l-1 -73 -65 0 -65 0 0 -70 0 -70 65 0 64 0 3 -67 c2 -38 2 -98 0 -135 l-4 -68 -63 0 -64 0 -3 68 -3 67 -137 3 -138 3 0 -71 0 -70 140 0 140 0 0 -70 0 -70 135 0 135 0 0 485 0 485 -64 0 c-36 0 -67 -4 -71 -9z"/>
<path d="M830 3320 l0 -140 70 0 70 0 0 140 0 140 -70 0 -70 0 0 -140z"/>
<path d="M420 2905 l0 -135 -70 0 -70 0 0 -70 0 -70 70 0 71 0 -3 -137 -3 -138 -67 -3 -68 -3 0 -204 0 -204 68 -3 67 -3 3 -67 3 -68 -71 0 -70 0 0 -70 0 -70 135 0 135 0 0 -70 0 -70 -135 0 -135 0 0 -70 0 -70 345 0 345 0 0 70 0 70 -140 0 -140 0 0 70 0 70 415 0 415 0 0 -140 0 -140 -70 0 -70 0 0 70 0 70 -135 0 -135 0 0 -70 0 -70 135 0 135 0 0 -205 0 -205 70 0 70 0 0 205 0 205 70 0 70 0 0 140 0 140 70 0 70 0 0 -205 0 -205 -70 0 -70 0 0 -70 0 -70 70 0 70 0 0 -70 0 -70 -70 0 -70 0 0 -70 0 -70 70 0 70 0 0 -70 0 -70 -70 0 -70 0 0 -70 0 -70 -70 0 -70 0 0 70 0 70 -70 0 -71 0 3 -68 3 -67 68 -3 67 -3 0 -134 0 -135 140 0 141 0 -3 68 -3 67 -67 3 -68 3 0 64 0 65 70 0 70 0 0 -65 0 -65 70 0 70 0 0 65 0 64 68 3 67 3 3 68 3 67 134 0 135 0 0 70 0 70 70 0 70 0 0 -205 0 -205 70 0 70 0 0 -70 0 -70 70 0 70 0 0 70 0 71 68 -3 67 -3 3 -67 3 -68 64 0 65 0 0 135 0 135 -135 0 -135 0 0 70 0 70 -70 0 -70 0 0 70 0 70 -70 0 -70 0 0 70 0 70 140 0 140 0 0 205 0 204 68 3 67 3 3 138 3 137 -71 0 -70 0 0 70 0 70 -140 0 -140 0 0 -70 0 -70 -70 0 -70 0 0 70 0 70 -135 0 -135 0 0 -70 0 -70 135 0 135 0 0 -70 0 -70 70 0 70 0 0 -275 0 -275 -140 0 -140 0 0 -70 0 -70 -135 0 -135 0 0 140 0 140 70 0 71 0 -3 67 -3 68 -67 3 -68 3 0 274 0 275 -70 0 -70 0 0 205 0 205 -70 0 -70 0 0 -135 0 -135 -140 0 -140 0 0 135 0 135 -65 0 -65 0 0 -65 0 -65 -72 -1 c-40 0 -103 0 -140 1 l-68 1 0 -70 0 -70 138 -3 137 -3 3 -67 3 -68 -351 0 -350 0 0 140 0 140 -65 0 -65 0 0 65 0 65 135 0 135 0 0 210 0 210 -70 0 -70 0 0 70 0 70 70 0 70 0 0 70 0 70 140 0 140 0 0 65 0 65 -140 0 -140 0 0 -65 0 -65 -70 0 -70 0 0 65 0 65 -65 0 -65 0 0 -135z m2350 -1385 l0 -140 -70 0 -70 0 0 70 0 70 -70 0 -70 0 0 70 0 70 140 0 140 0 0 -140z m-830 -900 l0 -70 -70 0 -70 0 0 70 0 70 70 0 70 0 0 -70z"/>
<path d="M830 2700 l0 -70 70 0 70 0 0 70 0 70 -70 0 -70 0 0 -70z"/>
<path d="M830 2350 l0 -140 208 2 207 3 3 68 3 67 -141 0 -140 0 0 70 0 70 -70 0 -70 0 0 -140z"/>
<path d="M4570 2010 l0 -70 65 0 65 0 0 -70 0 -70 -65 0 -65 0 0 -140 0 -140 135 0 135 0 0 280 0 279 -135 0 -135 0 0 -69z"/>
<path d="M2080 1315 l0 -65 135 0 135 0 0 65 0 65 -135 0 -135 0 0 -65z"/>
<path d="M280 765 l0 -485 485 0 485 0 -2 483 -3 482 -482 3 -483 2 0 -485z m820 -5 l0 -340 -340 0 -340 0 0 340 0 340 340 0 340 0 0 -340z"/>
<path d="M552 763 l3 -208 208 -3 207 -2 0 210 0 210 -210 0 -210 0 2 -207z"/>
<path d="M2080 485 l0 -65 65 0 65 0 0 65 0 65 -65 0 -65 0 0 -65z"/>
<path d="M3180 485 l0 -65 70 0 70 0 0 65 0 65 -70 0 -70 0 0 -65z"/>
<path d="M3600 415 l0 -135 70 0 70 0 0 70 0 70 135 0 135 0 0 65 0 65 -205 0 -205 0 0 -135z"/>
<path d="M4707 413 c-4 -3 -7 -35 -7 -70 l0 -63 70 0 70 0 0 70 0 70 -63 0 c-35 0 -67 -3 -70 -7z"/>
<path fill="hsl(214.5882, 44.70588%, 50%)" d="M2388 3252 c-43 -9 -32 -74 22 -127 l39 -38 -32 -45 c-118 -165 -391 -484 -541 -632 l-76 -74 0 -58 c0 -52 2 -58 32 -80 27 -19 48 -23 129 -26 l97 -4 4 -129 c2 -88 7 -132 16 -141 10 -10 58 -13 188 -13 186 0 193 2 194 51 0 42 -27 52 -158 58 l-123 6 -4 82 c-2 46 -7 106 -10 135 -8 60 -7 59 -139 69 -47 4 -86 9 -86 11 0 3 46 53 101 111 118 124 311 353 422 500 43 56 81 102 85 101 4 0 58 -64 119 -142 112 -141 261 -313 420 -485 l83 -89 -113 -8 c-61 -4 -118 -12 -124 -17 -9 -7 -13 -50 -13 -149 l0 -139 -92 0 c-51 0 -117 -3 -146 -7 -52 -6 -53 -6 -50 -37 5 -50 31 -57 211 -54 197 4 187 -5 187 164 l0 122 109 4 c106 3 111 4 140 33 24 22 31 37 31 68 0 35 -9 49 -107 156 -185 201 -392 446 -503 594 l-43 58 25 27 c66 70 71 142 10 142 -31 0 -119 -51 -128 -75 -9 -22 -17 -19 -69 28 -49 43 -77 56 -107 49z"/>
<path fill="hsl(344, 80%, 50%)" d="M2352 2589 c-10 -16 -13 -77 -13 -242 0 -199 2 -223 17 -234 31 -23 50 -14 104 50 29 34 59 69 67 77 11 12 22 5 81 -53 76 -76 122 -94 142 -58 18 34 3 60 -73 138 l-70 72 76 101 c43 56 77 110 77 120 0 16 -24 50 -35 50 -27 0 -69 -41 -160 -153 -71 -87 -112 -131 -117 -124 -4 7 -8 46 -8 88 0 124 -9 165 -37 178 -33 15 -36 14 -51 -10z"/>
</g>
</svg>
